<svg xmlns="http://www.w3.org/2000/svg" viewBox="0 0 64 64" id="bell-history">
  <path d="M8.75 54h8.68a12 12 0 0 0 23.64 0h8.68a6 6 0 0 0 .5-12v-3.11a17 17 0 0 0-6-32.89 16.8 16.8 0 0 0-7 1.54 8 8 0 0 0-16 .46v.6a20.94 20.94 0 0 0-13 19.4v14a6 6 0 0 0 .5 12Zm20.5 6a8 8 0 0 1-7.74-6H37a8 8 0 0 1-7.75 6Zm28-37a13 13 0 1 1-13-13 13 13 0 0 1 13 13Zm-28-19a4 4 0 0 1 3.94 3.39 21.3 21.3 0 0 0-7.88 0A4 4 0 0 1 29.25 4ZM7.32 46.59A2 2 0 0 1 8.75 46h1.5a2 2 0 0 0 2-2V28a17 17 0 0 1 11.64-16.13 16.77 16.77 0 0 1 8.11-.64A17 17 0 0 0 44.25 40a16.52 16.52 0 0 0 2-.13V44a2 2 0 0 0 2 2h1.5a2 2 0 0 1 2 2 2 2 0 0 1-2 2h-41a2 2 0 0 1-2-2 2 2 0 0 1 .57-1.41Z"></path>
  <path d="m43.53 24.87 7.75 3 1.44-3.74-6.47-2.5V12h-4v11a2 2 0 0 0 1.28 1.87Z"></path>
</svg>
