<svg xmlns="http://www.w3.org/2000/svg" viewBox="0 0 100 100" id="Map">
  <path fill="#32b9e9" d="M62.7,26.22A12.7,12.7,0,1,0,50,38.92,12.71,12.71,0,0,0,62.7,26.22Zm-22.39,0A9.69,9.69,0,1,1,50,35.91,9.7,9.7,0,0,1,40.31,26.22Z" class="color1d1d1b svgShape"></path>
  <path fill="#32b9e9" d="M60.23,60.26,71.52,38.1a24.15,24.15,0,1,0-43,0L39.76,60.26c-15.78,2.31-26.64,9.56-26.64,18C13.12,88.59,29.66,97,50,97s36.88-8.41,36.88-18.74C86.88,69.82,76,62.57,60.23,60.26ZM32,16.09A21.14,21.14,0,0,1,68.84,36.74L50,73.73l-18.84-37A21,21,0,0,1,32,16.09ZM48.65,77.73a1.51,1.51,0,0,0,2.69,0l3.73-7.33c5.15,1.29,8.67,4.45,8.67,7.88,0,4.6-6.29,8.49-13.74,8.49s-13.75-3.89-13.75-8.49c0-3.44,3.48-6.58,8.67-7.88ZM50,94c-18,0-33.87-7.35-33.87-15.73,0-6.84,10.72-13.28,25.08-15.16l2.32,4.56c-6.19,1.76-10.29,5.94-10.29,10.62,0,6.45,7.36,11.5,16.76,11.5s16.75-5,16.75-11.5c0-4.74-4.07-8.86-10.29-10.62l2.33-4.56C73.15,65,83.87,71.42,83.87,78.26,83.87,86.64,68,94,50,94Z" class="color1d1d1b svgShape"></path>
</svg>
